<svg width="151" height="88" viewBox="0 0 151 88" fill="none" xmlns="http://www.w3.org/2000/svg">
<path d="M18.5092 47.1818V53.7017H0.959872V47.1818H18.5092ZM4.63636 40.517H13.4925V66.2525C13.4925 66.7958 13.5771 67.2365 13.7461 67.5746C13.9272 67.9006 14.1868 68.136 14.5249 68.2809C14.8629 68.4137 15.2674 68.4801 15.7383 68.4801C16.0763 68.4801 16.4325 68.4499 16.8068 68.3896C17.1932 68.3171 17.483 68.2567 17.6761 68.2085L19.0163 74.6016C18.5938 74.7223 17.9961 74.8732 17.2234 75.0543C16.4627 75.2354 15.5511 75.3501 14.4886 75.3984C12.4119 75.495 10.631 75.2536 9.14595 74.674C7.67294 74.0824 6.54403 73.1648 5.75923 71.9212C4.98651 70.6776 4.61222 69.114 4.63636 67.2305V40.517ZM30.8699 75.4709C29.095 75.4709 27.5194 75.1751 26.1429 74.5835C24.7786 73.9798 23.698 73.0742 22.9011 71.8668C22.1163 70.6474 21.7239 69.12 21.7239 67.2848C21.7239 65.7393 21.9956 64.4354 22.5389 63.3729C23.0822 62.3104 23.8308 61.4471 24.7846 60.783C25.7385 60.119 26.8372 59.6179 28.0808 59.2798C29.3244 58.9297 30.6525 58.6942 32.0652 58.5735C33.6468 58.4286 34.9206 58.2777 35.8865 58.1207C36.8525 57.9517 37.5527 57.7163 37.9874 57.4144C38.4341 57.1005 38.6575 56.6598 38.6575 56.0923V56.0018C38.6575 55.0721 38.3375 54.3537 37.6976 53.8466C37.0577 53.3395 36.1944 53.0859 35.1078 53.0859C33.9366 53.0859 32.9949 53.3395 32.2825 53.8466C31.5701 54.3537 31.1174 55.054 30.9242 55.9474L22.7562 55.6577C22.9977 53.9673 23.6195 52.4581 24.6216 51.13C25.6358 49.7898 27.0243 48.7393 28.7871 47.9787C30.562 47.206 32.693 46.8196 35.1802 46.8196C36.9551 46.8196 38.5911 47.0309 40.0882 47.4535C41.5854 47.864 42.8894 48.4677 44.0002 49.2646C45.111 50.0494 45.9682 51.0153 46.5719 52.1623C47.1877 53.3093 47.4956 54.6193 47.4956 56.0923V75H39.1646V71.1243H38.9473C38.4522 72.0661 37.8184 72.8629 37.0456 73.5149C36.285 74.1669 35.3855 74.6559 34.3471 74.9819C33.3208 75.3079 32.1618 75.4709 30.8699 75.4709ZM33.6046 69.6754C34.5584 69.6754 35.4157 69.4822 36.1763 69.0959C36.949 68.7095 37.5648 68.1783 38.0236 67.5021C38.4824 66.8139 38.7118 66.017 38.7118 65.1115V62.4673C38.4583 62.6001 38.1504 62.7209 37.7882 62.8295C37.438 62.9382 37.0517 63.0408 36.6291 63.1374C36.2065 63.234 35.7718 63.3185 35.3251 63.391C34.8784 63.4634 34.4498 63.5298 34.0392 63.5902C33.2061 63.723 32.4938 63.9283 31.9022 64.206C31.3226 64.4837 30.8759 64.8459 30.562 65.2926C30.2601 65.7273 30.1092 66.2464 30.1092 66.8501C30.1092 67.7678 30.4352 68.468 31.0872 68.951C31.7512 69.4339 32.5904 69.6754 33.6046 69.6754ZM77.1973 55.6758L69.0655 55.8931C68.981 55.3136 68.7516 54.8004 68.3773 54.3537C68.003 53.8949 67.514 53.5387 66.9103 53.2852C66.3187 53.0195 65.6305 52.8867 64.8457 52.8867C63.8194 52.8867 62.9441 53.092 62.2196 53.5025C61.5073 53.913 61.1571 54.4684 61.1692 55.1687C61.1571 55.712 61.3745 56.1829 61.8212 56.5813C62.28 56.9798 63.095 57.2997 64.2662 57.5412L69.627 58.5554C72.4039 59.0866 74.4686 59.968 75.8208 61.1996C77.1852 62.4311 77.8734 64.0611 77.8855 66.0895C77.8734 67.9972 77.3059 69.6573 76.1831 71.07C75.0723 72.4826 73.551 73.5813 71.6191 74.3661C69.6873 75.1388 67.4778 75.5252 64.9906 75.5252C61.0183 75.5252 57.8851 74.7102 55.5911 73.0803C53.3091 71.4382 52.0051 69.2408 51.6792 66.4879L60.4267 66.2706C60.6199 67.2848 61.1209 68.0575 61.9299 68.5888C62.7388 69.12 63.7711 69.3857 65.0268 69.3857C66.1618 69.3857 67.0854 69.1744 67.7978 68.7518C68.5101 68.3292 68.8723 67.7678 68.8844 67.0675C68.8723 66.4396 68.5946 65.9386 68.0513 65.5643C67.508 65.1779 66.6568 64.8761 65.4977 64.6587L60.644 63.7351C57.8549 63.228 55.7782 62.2923 54.4139 60.9279C53.0495 59.5515 52.3734 57.8008 52.3855 55.6758C52.3734 53.8164 52.8684 52.2287 53.8706 50.9126C54.8727 49.5845 56.2974 48.5703 58.1447 47.87C59.992 47.1697 62.1713 46.8196 64.6827 46.8196C68.4498 46.8196 71.4199 47.6104 73.5932 49.1921C75.7665 50.7617 76.9679 52.9229 77.1973 55.6758ZM90.2325 67.7013L90.2687 57.1428H91.5003L99.3241 47.1818H109.358L97.7304 61.4531H95.3941L90.2325 67.7013ZM82.2457 75V37.9091H91.1018V75H82.2457ZM99.5233 75L92.2428 63.4453L98.0745 57.1609L109.756 75H99.5233ZM136.813 55.6758L128.682 55.8931C128.597 55.3136 128.368 54.8004 127.994 54.3537C127.619 53.8949 127.13 53.5387 126.527 53.2852C125.935 53.0195 125.247 52.8867 124.462 52.8867C123.436 52.8867 122.56 53.092 121.836 53.5025C121.123 53.913 120.773 54.4684 120.785 55.1687C120.773 55.712 120.991 56.1829 121.437 56.5813C121.896 56.9798 122.711 57.2997 123.882 57.5412L129.243 58.5554C132.02 59.0866 134.085 59.968 135.437 61.1996C136.801 62.4311 137.49 64.0611 137.502 66.0895C137.49 67.9972 136.922 69.6573 135.799 71.07C134.688 72.4826 133.167 73.5813 131.235 74.3661C129.304 75.1388 127.094 75.5252 124.607 75.5252C120.634 75.5252 117.501 74.7102 115.207 73.0803C112.925 71.4382 111.621 69.2408 111.295 66.4879L120.043 66.2706C120.236 67.2848 120.737 68.0575 121.546 68.5888C122.355 69.12 123.387 69.3857 124.643 69.3857C125.778 69.3857 126.702 69.1744 127.414 68.7518C128.126 68.3292 128.489 67.7678 128.501 67.0675C128.489 66.4396 128.211 65.9386 127.668 65.5643C127.124 65.1779 126.273 64.8761 125.114 64.6587L120.26 63.7351C117.471 63.228 115.394 62.2923 114.03 60.9279C112.666 59.5515 111.99 57.8008 112.002 55.6758C111.99 53.8164 112.485 52.2287 113.487 50.9126C114.489 49.5845 115.914 48.5703 117.761 47.87C119.608 47.1697 121.788 46.8196 124.299 46.8196C128.066 46.8196 131.036 47.6104 133.209 49.1921C135.383 50.7617 136.584 52.9229 136.813 55.6758Z" fill="#CBD5E1"/>
<rect x="0.5" y="0.5" width="15" height="15" rx="3.5" fill="#27272A" stroke="#27272A"/>
<rect x="20" width="16" height="16" rx="4" fill="#4C1D95"/>
<rect x="40" width="16" height="16" rx="4" fill="#5B21B6"/>
<rect x="60" width="16" height="16" rx="4" fill="#6D28D9"/>
<rect x="80" width="16" height="16" rx="4" fill="#7C3AED"/>
<rect x="100" width="16" height="16" rx="4" fill="#8B5CF6"/>
<rect x="120" width="16" height="16" rx="4" fill="#8B5CF6"/>
</svg>
